<mxfile host="app.diagrams.net" modified="2020-08-07T02:11:09.922Z" agent="5.0 (Windows NT 10.0; WOW64) AppleWebKit/537.36 (KHTML, like Gecko) Chrome/78.0.3904.108 Safari/537.36" etag="VWeHAiEUDFI4gMeyawpl" version="13.6.0" type="github">
  <diagram id="THQvPkJmmIP378CaxZGi" name="第 1 页">
    <mxGraphModel dx="1347" dy="786" grid="1" gridSize="10" guides="1" tooltips="1" connect="1" arrows="1" fold="1" page="1" pageScale="1" pageWidth="827" pageHeight="1169" math="0" shadow="0">
      <root>
        <mxCell id="0" />
        <mxCell id="1" parent="0" />
        <mxCell id="vKExDbRpea3L5lGt-G5C-4" value="" style="edgeStyle=orthogonalEdgeStyle;rounded=0;orthogonalLoop=1;jettySize=auto;html=1;" edge="1" parent="1" source="vKExDbRpea3L5lGt-G5C-1" target="vKExDbRpea3L5lGt-G5C-3">
          <mxGeometry relative="1" as="geometry" />
        </mxCell>
        <mxCell id="vKExDbRpea3L5lGt-G5C-1" value="提交订舱数据" style="rounded=0;whiteSpace=wrap;html=1;fillColor=#dae8fc;strokeColor=#6c8ebf;" vertex="1" parent="1">
          <mxGeometry x="80" y="160" width="120" height="60" as="geometry" />
        </mxCell>
        <mxCell id="vKExDbRpea3L5lGt-G5C-6" value="" style="edgeStyle=orthogonalEdgeStyle;rounded=0;orthogonalLoop=1;jettySize=auto;html=1;" edge="1" parent="1" source="vKExDbRpea3L5lGt-G5C-3">
          <mxGeometry relative="1" as="geometry">
            <mxPoint x="140" y="440" as="targetPoint" />
          </mxGeometry>
        </mxCell>
        <mxCell id="vKExDbRpea3L5lGt-G5C-20" value="" style="edgeStyle=orthogonalEdgeStyle;rounded=0;orthogonalLoop=1;jettySize=auto;html=1;" edge="1" parent="1" source="vKExDbRpea3L5lGt-G5C-3" target="vKExDbRpea3L5lGt-G5C-19">
          <mxGeometry relative="1" as="geometry" />
        </mxCell>
        <mxCell id="vKExDbRpea3L5lGt-G5C-3" value="客服确认" style="rounded=0;whiteSpace=wrap;html=1;fillColor=#dae8fc;strokeColor=#6c8ebf;" vertex="1" parent="1">
          <mxGeometry x="80" y="300" width="120" height="60" as="geometry" />
        </mxCell>
        <mxCell id="vKExDbRpea3L5lGt-G5C-8" value="" style="edgeStyle=orthogonalEdgeStyle;rounded=0;orthogonalLoop=1;jettySize=auto;html=1;" edge="1" parent="1" target="vKExDbRpea3L5lGt-G5C-7">
          <mxGeometry relative="1" as="geometry">
            <mxPoint x="140" y="500" as="sourcePoint" />
          </mxGeometry>
        </mxCell>
        <mxCell id="vKExDbRpea3L5lGt-G5C-41" value="" style="edgeStyle=orthogonalEdgeStyle;rounded=0;orthogonalLoop=1;jettySize=auto;html=1;" edge="1" parent="1" source="vKExDbRpea3L5lGt-G5C-7" target="vKExDbRpea3L5lGt-G5C-40">
          <mxGeometry relative="1" as="geometry" />
        </mxCell>
        <mxCell id="vKExDbRpea3L5lGt-G5C-7" value="放舱成功" style="rounded=0;whiteSpace=wrap;html=1;fillColor=#dae8fc;strokeColor=#6c8ebf;" vertex="1" parent="1">
          <mxGeometry x="80" y="580" width="120" height="60" as="geometry" />
        </mxCell>
        <mxCell id="vKExDbRpea3L5lGt-G5C-38" style="edgeStyle=orthogonalEdgeStyle;rounded=0;orthogonalLoop=1;jettySize=auto;html=1;" edge="1" parent="1" source="vKExDbRpea3L5lGt-G5C-11" target="vKExDbRpea3L5lGt-G5C-1">
          <mxGeometry relative="1" as="geometry" />
        </mxCell>
        <mxCell id="vKExDbRpea3L5lGt-G5C-11" value="修改数据" style="whiteSpace=wrap;html=1;rounded=0;strokeColor=#6c8ebf;fillColor=#dae8fc;" vertex="1" parent="1">
          <mxGeometry x="280" y="160" width="120" height="60" as="geometry" />
        </mxCell>
        <mxCell id="vKExDbRpea3L5lGt-G5C-21" style="edgeStyle=orthogonalEdgeStyle;rounded=0;orthogonalLoop=1;jettySize=auto;html=1;entryX=0.5;entryY=1;entryDx=0;entryDy=0;" edge="1" parent="1" source="vKExDbRpea3L5lGt-G5C-19" target="vKExDbRpea3L5lGt-G5C-34">
          <mxGeometry relative="1" as="geometry">
            <mxPoint x="480" y="330" as="targetPoint" />
          </mxGeometry>
        </mxCell>
        <mxCell id="vKExDbRpea3L5lGt-G5C-35" style="edgeStyle=orthogonalEdgeStyle;rounded=0;orthogonalLoop=1;jettySize=auto;html=1;" edge="1" parent="1" source="vKExDbRpea3L5lGt-G5C-19" target="vKExDbRpea3L5lGt-G5C-11">
          <mxGeometry relative="1" as="geometry" />
        </mxCell>
        <mxCell id="vKExDbRpea3L5lGt-G5C-37" value="数据有误" style="edgeLabel;html=1;align=center;verticalAlign=middle;resizable=0;points=[];" vertex="1" connectable="0" parent="vKExDbRpea3L5lGt-G5C-35">
          <mxGeometry x="-0.2083" y="-1" relative="1" as="geometry">
            <mxPoint as="offset" />
          </mxGeometry>
        </mxCell>
        <mxCell id="vKExDbRpea3L5lGt-G5C-19" value="不通过" style="rhombus;whiteSpace=wrap;html=1;rounded=0;strokeColor=#6c8ebf;fillColor=#dae8fc;" vertex="1" parent="1">
          <mxGeometry x="280" y="300" width="120" height="60" as="geometry" />
        </mxCell>
        <mxCell id="vKExDbRpea3L5lGt-G5C-23" value="提交" style="text;html=1;strokeColor=none;fillColor=none;align=center;verticalAlign=middle;whiteSpace=wrap;rounded=0;" vertex="1" parent="1">
          <mxGeometry x="150" y="250" width="40" height="20" as="geometry" />
        </mxCell>
        <mxCell id="vKExDbRpea3L5lGt-G5C-24" value="通过" style="text;html=1;strokeColor=none;fillColor=none;align=center;verticalAlign=middle;whiteSpace=wrap;rounded=0;" vertex="1" parent="1">
          <mxGeometry x="150" y="390" width="40" height="20" as="geometry" />
        </mxCell>
        <mxCell id="vKExDbRpea3L5lGt-G5C-29" style="edgeStyle=orthogonalEdgeStyle;rounded=0;orthogonalLoop=1;jettySize=auto;html=1;entryX=0;entryY=0.5;entryDx=0;entryDy=0;" edge="1" parent="1" source="vKExDbRpea3L5lGt-G5C-27" target="vKExDbRpea3L5lGt-G5C-3">
          <mxGeometry relative="1" as="geometry">
            <Array as="points">
              <mxPoint x="40" y="470" />
              <mxPoint x="40" y="330" />
            </Array>
          </mxGeometry>
        </mxCell>
        <mxCell id="vKExDbRpea3L5lGt-G5C-27" value="船公司确认" style="rhombus;whiteSpace=wrap;html=1;rounded=0;strokeColor=#6c8ebf;fillColor=#dae8fc;" vertex="1" parent="1">
          <mxGeometry x="80" y="440" width="120" height="60" as="geometry" />
        </mxCell>
        <mxCell id="vKExDbRpea3L5lGt-G5C-32" value="拒绝" style="text;html=1;strokeColor=none;fillColor=none;align=center;verticalAlign=middle;whiteSpace=wrap;rounded=0;" vertex="1" parent="1">
          <mxGeometry x="40" y="390" width="40" height="20" as="geometry" />
        </mxCell>
        <mxCell id="vKExDbRpea3L5lGt-G5C-33" value="接收" style="text;html=1;strokeColor=none;fillColor=none;align=center;verticalAlign=middle;whiteSpace=wrap;rounded=0;" vertex="1" parent="1">
          <mxGeometry x="150" y="520" width="40" height="20" as="geometry" />
        </mxCell>
        <mxCell id="vKExDbRpea3L5lGt-G5C-39" style="edgeStyle=orthogonalEdgeStyle;rounded=0;orthogonalLoop=1;jettySize=auto;html=1;entryX=0.5;entryY=0;entryDx=0;entryDy=0;" edge="1" parent="1" source="vKExDbRpea3L5lGt-G5C-34" target="vKExDbRpea3L5lGt-G5C-1">
          <mxGeometry relative="1" as="geometry">
            <Array as="points">
              <mxPoint x="540" y="120" />
              <mxPoint x="140" y="120" />
            </Array>
          </mxGeometry>
        </mxCell>
        <mxCell id="vKExDbRpea3L5lGt-G5C-34" value="提交保函" style="whiteSpace=wrap;html=1;rounded=0;strokeColor=#6c8ebf;fillColor=#dae8fc;" vertex="1" parent="1">
          <mxGeometry x="480" y="160" width="120" height="60" as="geometry" />
        </mxCell>
        <mxCell id="vKExDbRpea3L5lGt-G5C-36" value="需要保函" style="text;html=1;strokeColor=none;fillColor=none;align=center;verticalAlign=middle;whiteSpace=wrap;rounded=0;" vertex="1" parent="1">
          <mxGeometry x="440" y="300" width="50" height="20" as="geometry" />
        </mxCell>
        <mxCell id="vKExDbRpea3L5lGt-G5C-45" value="" style="edgeStyle=orthogonalEdgeStyle;rounded=0;orthogonalLoop=1;jettySize=auto;html=1;" edge="1" parent="1" source="vKExDbRpea3L5lGt-G5C-40" target="vKExDbRpea3L5lGt-G5C-44">
          <mxGeometry relative="1" as="geometry" />
        </mxCell>
        <mxCell id="vKExDbRpea3L5lGt-G5C-40" value="生成提单补料数据" style="whiteSpace=wrap;html=1;rounded=0;strokeColor=#6c8ebf;fillColor=#dae8fc;" vertex="1" parent="1">
          <mxGeometry x="280" y="580" width="120" height="60" as="geometry" />
        </mxCell>
        <mxCell id="vKExDbRpea3L5lGt-G5C-44" value="over" style="ellipse;whiteSpace=wrap;html=1;rounded=0;strokeColor=#6c8ebf;fillColor=#dae8fc;" vertex="1" parent="1">
          <mxGeometry x="480" y="580" width="120" height="60" as="geometry" />
        </mxCell>
        <mxCell id="vKExDbRpea3L5lGt-G5C-47" style="edgeStyle=orthogonalEdgeStyle;rounded=0;orthogonalLoop=1;jettySize=auto;html=1;" edge="1" parent="1" source="vKExDbRpea3L5lGt-G5C-46" target="vKExDbRpea3L5lGt-G5C-1">
          <mxGeometry relative="1" as="geometry" />
        </mxCell>
        <mxCell id="vKExDbRpea3L5lGt-G5C-46" value="start" style="ellipse;whiteSpace=wrap;html=1;rounded=0;strokeColor=#6c8ebf;fillColor=#dae8fc;" vertex="1" parent="1">
          <mxGeometry x="80" y="40" width="120" height="60" as="geometry" />
        </mxCell>
      </root>
    </mxGraphModel>
  </diagram>
</mxfile>
